<svg viewBox="0 0 100 100" xmlns="http://www.w3.org/2000/svg">
  <!-- #04 · 无框印记 — pen nib silhouette with 飞白 fly-white marks -->

  <!-- Main nib silhouette (0.88 opacity — breath with background) -->
  <path d="M 18 22 L 38 14 L 60 22 L 64 38 L 64 56 L 58 72 L 50 88 L 38 76 L 30 60 L 26 42 L 22 30 Z"
        fill="#b03828" opacity="0.88"/>

  <!-- Heart-shaped negative space (brand anchor) -->
  <path d="M 40 42 L 41 39 L 43 38 L 46 39 L 48 38 L 50 39 L 51 41 L 51 43 L 50 46 L 47 50 L 44 46 L 42 43 Z"
        fill="#f4e8c8"/>

  <!-- 飞白 · 6 asymmetric fly-white breaks -->
  <path d="M 58 22 L 60 22 L 60 26 L 59 25 Z"    fill="#f4e8c8" opacity="0.95"/>
  <path d="M 28 40 L 30 41 L 29 43 L 27 42 Z"    fill="#f4e8c8" opacity="0.85"/>
  <ellipse cx="44" cy="62" rx="1.2" ry="0.8"     fill="#f4e8c8" opacity="0.75" transform="rotate(15 44 62)"/>
  <path d="M 58 66 L 60 67 L 59 69 L 57 68 Z"    fill="#f4e8c8" opacity="0.90"/>
  <circle cx="49" cy="80" r="0.7"                fill="#f4e8c8" opacity="0.80"/>
  <path d="M 36 16 L 38 14.5 L 39 17 Z"          fill="#f4e8c8" opacity="0.80"/>

  <!-- 拉丝纹 · 2 fine grain lines -->
  <line x1="34" y1="48" x2="40" y2="52" stroke="#f4e8c8" stroke-width="0.5" opacity="0.4"/>
  <line x1="52" y1="56" x2="56" y2="60" stroke="#f4e8c8" stroke-width="0.5" opacity="0.4"/>
</svg>
